{"title":"The.Tourist.2010.R5.LiNE.AC3.XViD-T0XiC-iNK","uid":6127918,"size":1530937208,"categoryP":"video","categoryS":"movies","magnet":"?xt=urn:btih:cc166e725de302786eebc55328e5242e113c98bb&amp;dn=The.Tourist.2010.R5.LiNE.AC3.XViD-T0XiC-iNK&amp;tr=udp%3A%2F%2Ftracker.openbittorrent.com%3A80&amp;tr=udp%3A%2F%2Fopen.demonii.com%3A1337&amp;tr=udp%3A%2F%2Ftracker.coppersurfer.tk%3A6969&amp;tr=udp%3A%2F%2Fexodus.desync.com%3A6969","seeders":0,"leechers":1,"uploader":".BONE.","files":4,"time":1296009379,"description":"File:: The.Tourist.2010.R5.LiNE.AC3.XViD-T0XiC-iNK\nVideo Source:: ....Russians\nAudio Source:: ....own, thx matey\nLanguage::English\nIMDB::http://www.imdb.com/title/tt1243957/\n\nRevolves around Frank, an American tourist visiting Italy to mend a broken heart. Elise is\nan extraordinary woman who deliberately crosses his path.\n\nSpecs::\n\nGeneral\n\nFormat : AVI\nFormat/Info : Audio Video Interleave\nFile size : 1.41 GiB\nDuration : 1h 39mn\nOverall bit rate : 2 035 Kbps\nWriting application : VirtualDubMod 1.5.10.2 (build 2540/release)\nWriting library : VirtualDubMod build 2540/release\n\nVideo\nID : 0\nFormat : MPEG-4 Visual\nFormat profile : Advanced Simple@L5\nFormat settings, BVOP : Yes\nFormat settings, QPel : No\nFormat settings, GMC : No warppoints\nFormat settings, Matrix : Custom\nCodec ID : XVID\nCodec ID/Hint : XviD\nDuration : 1h 39mn\nBit rate : 1 578 Kbps\nWidth : 720 pixels\nHeight : 304 pixels\nDisplay aspect ratio : 2.35:1\nFrame rate : 25.000 fps\nColor space : YUV\nChroma subsampling : 4:2:0\nBit depth : 8 bits\nScan type : Progressive\nBits/(Pixel*Frame) : 0.288\nStream size : 1.09 GiB (78%)\nWriting library : XviD 58\n\nAudio\nID : 1\nFormat : AC-3\nFormat/Info : Audio Coding 3\nMode extension : CM (complete main)\nCodec ID : 2000\nDuration : 1h 39mn\nBit rate mode : Constant\nBit rate : 448 Kbps\nChannel(s) : 6 channels\nChannel positions : Front: L C R, Side: L R, LFE\nSampling rate : 48.0 KHz\nBit depth : 16 bits\nStream size : 318 MiB (22%)\nAlignment : Split accross interleaves\nInterleave, duration : 40 ms (1.00 video frame)\nInterleave, preload duration : 500 ms\n\n\nNOTES:: Enjoy first rls of The Tourist R5 complete with 5.1 dolby. Enjoy\n\n\n::Why Complain? Whats Free Is Free::\n\n::iNK is currently a free agent looking for work, if you would like iNK's touch, give me a email at:\n\n...&lt;a class=&quot;__cf_email__&quot; href=&quot;/cdn-cgi/l/email-protection&quot; data-cfemail=&quot;1c78757b75687d70327572775c70756a79327f7371&quot;&gt;[email&amp;#160;protected]&lt;/a&gt;&lt;script cf-hash='f9e31' type=&quot;text/javascript&quot;&gt;\n/* &lt;![CDATA[ */!function(){try{var t=&quot;currentScript&quot;in document?document.currentScript:function(){for(var t=document.getElementsByTagName(&quot;script&quot;),e=t.length;e--;)if(t[e].getAttribute(&quot;cf-hash&quot;))return t[e]}();if(t&amp;&amp;t.previousSibling){var e,r,n,i,c=t.previousSibling,a=c.getAttribute(&quot;data-cfemail&quot;);if(a){for(e=&quot;&quot;,r=parseInt(a.substr(0,2),16),n=2;a.length-n;n+=2)i=parseInt(a.substr(n,2),16)^r,e+=String.fromCharCode(i);e=document.createTextNode(e),c.parentNode.replaceChild(e,c)}}}catch(u){}}();/* ]]&gt; */&lt;/script&gt; or MSN add me.\n\n::We are always looking for friends with unreleased DVD's, Screeners, R5's, Audio, Cams, Silvers,\n...and any other good sources you may have to offer - contact us: &lt;a class=&quot;__cf_email__&quot; href=&quot;/cdn-cgi/l/email-protection&quot; data-cfemail=&quot;5226622a3b3120373e3733213721123a27213a3f333b3e7c313d3f&quot;&gt;[email&amp;#160;protected]&lt;/a&gt;&lt;script cf-hash='f9e31' type=&quot;text/javascript&quot;&gt;\n/* &lt;![CDATA[ */!function(){try{var t=&quot;currentScript&quot;in document?document.currentScript:function(){for(var t=document.getElementsByTagName(&quot;script&quot;),e=t.length;e--;)if(t[e].getAttribute(&quot;cf-hash&quot;))return t[e]}();if(t&amp;&amp;t.previousSibling){var e,r,n,i,c=t.previousSibling,a=c.getAttribute(&quot;data-cfemail&quot;);if(a){for(e=&quot;&quot;,r=parseInt(a.substr(0,2),16),n=2;a.length-n;n+=2)i=parseInt(a.substr(n,2),16)^r,e+=String.fromCharCode(i);e=document.createTextNode(e),c.parentNode.replaceChild(e,c)}}}catch(u){}}();/* ]]&gt; */&lt;/script&gt;\n\n:::::::::::::::::::::::::::::::::::: Respect To :::::::::::::::::::::::::::::::::::::\n::IMAGiNE,FLAWL3SS,Hive-CM8,DiGiTALiNK,Tranz,Vik,OneTwo,Joey,bob,&amp; our friends on utn and PA::\n&quot;and to all of you who support us, Thank-You&quot;\n &lt;a href=&quot;\nhttp://www.leetleech.org/images/95701356707086696289.png&quot; rel=&quot;nofollow&quot; target=&quot;_NEW&quot;&gt;\nhttp://www.leetleech.org/images/95701356707086696289.png&lt;/a&gt;\n &lt;a href=&quot;\nhttp://www.leetleech.org/images/81667130669592115262.png&quot; rel=&quot;nofollow&quot; target=&quot;_NEW&quot;&gt;\nhttp://www.leetleech.org/images/81667130669592115262.png&lt;/a&gt;\n &lt;a href=&quot;\nhttp://www.leetleech.org/images/59697172252505587859.png&quot; rel=&quot;nofollow&quot; target=&quot;_NEW&quot;&gt;\nhttp://www.leetleech.org/images/59697172252505587859.png&lt;/a&gt;","torrent":{"xt":"urn:btih:cc166e725de302786eebc55328e5242e113c98bb","amp;dn":"The.Tourist.2010.R5.LiNE.AC3.XViD-T0XiC-iNK","amp;tr":["udp%3A%2F%2Ftracker.openbittorrent.com%3A80","udp%3A%2F%2Fopen.demonii.com%3A1337","udp%3A%2F%2Ftracker.coppersurfer.tk%3A6969","udp%3A%2F%2Fexodus.desync.com%3A6969"],"infoHash":"cc166e725de302786eebc55328e5242e113c98bb","infoHashBuffer":{"type":"Buffer","data":[204,22,110,114,93,227,2,120,110,235,197,83,40,229,36,46,17,60,152,187]},"announce":[],"urlList":[]}}